<svg width="444" height="458" viewBox="0 0 444 458" fill="none" xmlns="http://www.w3.org/2000/svg">
  <mask id="mask0_69_11" style="mask-type:alpha" maskUnits="userSpaceOnUse" x="0" y="0" width="444" height="458">
    <path d="M389.999 69.4512C320.999 -16.4999 169.83 -28.9146 132.33 69.4513C92.2361 174.622 62.8814 155.825 23.9991 207.5C-28.3318 277.049 15.671 395.266 69.33 424.951C122.989 454.636 184.962 467.5 290.83 447.951C372.861 432.804 417.753 371.451 434.83 299.451C451.907 227.451 444.646 137.522 389.999 69.4512Z" fill="#64FFDA" />
  </mask>
  <g mask="url(#mask0_69_11)">
    <path d="M452.245 -7.33244C358.683 -81.8666 203.746 -78.4399 114.63 -46.7412C-41.5055 8.79588 -87.6818 90.1297 -98.7353 164.011C-109.789 237.891 -101.697 468.34 -19.9015 513.55C61.8943 558.761 197.303 575.878 358.684 546.105C520.064 516.333 554.33 414.171 554.33 301.92C554.33 219.42 529.215 53.9847 452.245 -7.33244Z" fill="#64FFDA" />
    <path d="M-24.6699 211.852C49.4936 227.926 92.1938 310.673 155.682 285.075C219.171 259.477 131.523 33.8561 262.995 85.6475C373.743 129.275 354.014 283.885 511.33 275.55" stroke="#00DBA7" stroke-width="10" />
    <path d="M-32.6699 336.951C53.257 278.597 94.6965 183.732 182.758 207.782C243.973 224.5 253.084 324.292 306.999 368.5C367.672 418.249 430.429 389.036 493.33 404.951" stroke="#00DBA7" stroke-width="10" />
    <path d="M11.3311 378.951C130.488 279.612 182.76 343.032 224.914 343.032C318.515 343.032 279.996 208.896 345.195 179.712C410.394 150.527 469.973 225.172 491.331 226.856" stroke="#00DBA7" stroke-width="10" />
  </g>
  <path d="M374.004 117.811L179.448 91.3176C174.328 90.6204 169.9 94.8872 170.407 100.029L186.286 261.085L63.4293 292.229C58.0877 293.583 55.7665 299.75 59.158 304.093C60.4369 305.731 61.8761 307.521 63.4545 309.405C68.7405 315.712 130.747 362.777 157.38 382.886C164.952 388.602 174.776 390.366 183.874 387.676L363.783 334.49C367.022 333.532 369.311 330.644 369.502 327.271L380.912 126.191C381.149 122.024 378.141 118.375 374.004 117.811Z" fill="#0A192F" />
  <path d="M355.872 132.213L191.631 108.847C188.423 108.391 185.635 111.06 185.951 114.285L199.244 250.103C199.444 252.143 200.869 253.855 202.839 254.422L348.084 296.185C351.207 297.083 354.343 294.811 354.463 291.565L360.165 137.348C360.259 134.79 358.407 132.574 355.872 132.213Z" fill="#64FFDA" />
  <path d="M221.011 354.442L126.08 292.612C124.631 291.669 124.982 289.456 126.651 289.006L189.271 272.116C189.669 272.009 190.091 272.027 190.478 272.169L322.715 320.508C324.519 321.167 324.447 323.742 322.611 324.3L222.684 354.68C222.119 354.852 221.506 354.765 221.011 354.442Z" fill="#64FFDA" />
  <path d="M131.168 312.298L103.839 322.214C102.339 322.758 102.049 324.755 103.334 325.703L135.298 349.297C135.85 349.704 136.571 349.8 137.211 349.552L165.771 338.443C167.275 337.858 167.502 335.824 166.164 334.921L132.969 312.521C132.439 312.163 131.769 312.08 131.168 312.298Z" fill="#64FFDA" />
</svg>
