<?xml version="1.0" encoding="UTF-8" standalone="no"?>
<svg 
  xmlns="http://www.w3.org/2000/svg" 
  version="1.1"
  width="1920" 
  height="1080" 
  preserveAspectRatio="none" 
  viewBox="0 0 1920 1080"
>
  <g 
    mask="url(&quot;#SvgjsMask1137&quot;)" 
    fill="none"
  >
    <!-- <path d="M -911.833153824352,977 C -815.83,833.6 -623.83,332.8 -431.83315382435205,260 C -239.83,187.2 -143.83,627.2 48.16684617564795,613 C 240.17,598.8 336.17,118.8 528.166846175648,189 C 720.17,259.2 816.17,931.4 1008.166846175648,964 C 1200.17,996.6 1305.8,417 1488.166846175648,352 C 1670.53,287 1833.63,581.6 1920,639" stroke="rgba(20, 65, 70, 1)" stroke-width="2"></path>
    <path d="M -954.7303508483751,478 C -858.73,542.8 -666.73,827.8 -474.73035084837505,802 C -282.73,776.2 -186.73,310.2 5.269649151624947,349 C 197.27,387.8 293.27,992.4 485.26964915162495,996 C 677.27,999.6 773.27,373.4 965.2696491516249,367 C 1157.27,360.6 1254.32,1005.2 1445.269649151625,964 C 1636.22,922.8 1825.05,321.6 1920,161" stroke="rgba(20, 65, 70, 1)" stroke-width="2"></path>
    <path d="M -304.11244808417484,805 C -208.11,731.4 -16.11,457.8 175.88755191582516,437 C 367.89,416.2 463.89,719.8 655.8875519158252,701 C 847.89,682.2 943.89,315.8 1135.887551915825,343 C 1327.89,370.2 1423.89,832.4 1615.887551915825,837 C 1807.89,841.6 2035.07,385.6 2095.887551915825,366 C 2156.71,346.4 1955.18,664.4 1920,739" stroke="rgba(20, 65, 70, 1)" stroke-width="2"></path>
    <path d="M -459.8591888498683,153 C -363.86,295.2 -171.86,824.2 20.140811150131697,864 C 212.14,903.8 308.14,351 500.1408111501317,352 C 692.14,353 788.14,886.2 980.1408111501316,869 C 1172.14,851.8 1268.14,306.2 1460.1408111501316,266 C 1652.14,225.8 1848.17,701.4 1940.1408111501316,668 C 2032.11,634.6 1924.03,212.8 1920,99" stroke="rgba(20, 65, 70, 1)" stroke-width="2"></path> -->
    
    <path d="M -189.60556133090017,425 C 2.39,456.6 386.39,616 770.3944386690998,583 C 1154.39,550 1346.39,267.8 1730.3944386690998,260 C 2114.39,252.2 2652.47,496.8 2690.3944386691,544 C 2728.32,591.2 2074.08,505.6 1920,496" stroke="rgba(20, 65, 70, 1)" stroke-width="2"></path>
    <path d="M -468.0417417381217,260 C -276.04,389 107.96,931 491.9582582618783,905 C 875.96,879 1067.96,100.4 1451.9582582618782,130 C 1835.96,159.6 2318.35,1066.2 2411.958258261878,1053 C 2505.57,1039.8 2018.39,261.8 1920,64" stroke="rgba(20, 65, 70, 1)" stroke-width="2"></path>
    <path d="M -1228.2984879328194,376 C -1036.3,450.2 -652.3,795 -268.29848793281946,747 C 115.7,699 307.7,124 691.7015120671806,136 C 1075.7,148 1406.04,757 1651.7015120671806,807 C 1897.36,857 1866.34,470.2 1920,386" stroke="rgba(20, 65, 70, 1)" stroke-width="2"></path>
    <path d="M -769.2754387878282,616 C -577.28,535.2 -193.28,211.4 190.7245612121718,212 C 574.72,212.6 766.72,559.4 1150.724561212172,619 C 1534.72,678.6 1956.87,434.2 2110.724561212172,510 C 2264.58,585.8 1958.14,900.4 1920,998" stroke="rgba(20, 65, 70, 1)" stroke-width="2"></path>
  </g>
  <defs>
    <mask id="SvgjsMask1137">
  <rect width="1920" height="1080" fill="#ffffff"></rect></mask></defs>
</svg>