<?xml version="1.0" encoding="UTF-8" standalone="no"?>
<svg 
  xmlns="http://www.w3.org/2000/svg" 
  version="1.1"
  width="1920" 
  height="1080" 
  preserveAspectRatio="none" 
  viewBox="0 0 1920 1080"
>
  <g 
    mask="url(&quot;#SvgjsMask1137&quot;)" 
    fill="none"
  >
    <path d="M -189.60556133090017,425 C 2.39,456.6 386.39,616 770.3944386690998,583 C 1154.39,550 1346.39,267.8 1730.3944386690998,260 C 2114.39,252.2 2652.47,496.8 2690.3944386691,544 C 2728.32,591.2 2074.08,505.6 1920,496" stroke="rgba(20, 65, 70, 1)" stroke-width="2"></path>
    <path d="M -468.0417417381217,260 C -276.04,389 107.96,931 491.9582582618783,905 C 875.96,879 1067.96,100.4 1451.9582582618782,130 C 1835.96,159.6 2318.35,1066.2 2411.958258261878,1053 C 2505.57,1039.8 2018.39,261.8 1920,64" stroke="rgba(20, 65, 70, 1)" stroke-width="2"></path>
    <path d="M -1228.2984879328194,376 C -1036.3,450.2 -652.3,795 -268.29848793281946,747 C 115.7,699 307.7,124 691.7015120671806,136 C 1075.7,148 1406.04,757 1651.7015120671806,807 C 1897.36,857 1866.34,470.2 1920,386" stroke="rgba(20, 65, 70, 1)" stroke-width="2"></path>
    <path d="M -769.2754387878282,616 C -577.28,535.2 -193.28,211.4 190.7245612121718,212 C 574.72,212.6 766.72,559.4 1150.724561212172,619 C 1534.72,678.6 1956.87,434.2 2110.724561212172,510 C 2264.58,585.8 1958.14,900.4 1920,998" stroke="rgba(20, 65, 70, 1)" stroke-width="2"></path>
  </g>
  <defs>
    <mask id="SvgjsMask1137">
  <rect width="1920" height="1080" fill="#ffffff"></rect></mask></defs>
</svg>